Coordinates
version=1
nRows=14
nColumns=40
inDegrees=yes

Units are S.I. units (second, meters, Newtons, ...)
If the header above contains a line with 'inDegrees', this indicates whether rotational values are in degrees (yes) or radians (no).

endheader
time	pelvis_tilt	pelvis_list	pelvis_rotation	pelvis_tx	pelvis_ty	pelvis_tz	hip_flexion_r	hip_adduction_r	hip_rotation_r	knee_angle_r	knee_angle_r_beta	ankle_angle_r	subtalar_angle_r	mtp_angle_r	hip_flexion_l	hip_adduction_l	hip_rotation_l	knee_angle_l	knee_angle_l_beta	ankle_angle_l	subtalar_angle_l	mtp_angle_l	lumbar_extension	lumbar_bending	lumbar_rotation	arm_flex_r	arm_add_r	arm_rot_r	elbow_flex_r	pro_sup_r	wrist_flex_r	wrist_dev_r	arm_flex_l	arm_add_l	arm_rot_l	elbow_flex_l	pro_sup_l	wrist_flex_l	wrist_dev_l
      4.10000000	     -3.35837572	     -1.15185750	      4.30736676	     -0.42308044	      0.76175277	     -1.04043650	     57.56711070	     -5.26456834	      4.06550673	      8.39577047	      0.14653384	     -0.23234107	      0.00000000	      0.00000000	     52.23368937	     -1.11295238	     -9.59791023	     76.75208836	      1.33957665	     17.76338618	      0.00000000	      0.00000000	    -17.35604242	     -3.02752940	     -2.43584915	     89.91632531	    -10.72364253	     11.35447236	     33.49093993	     77.86994458	      0.00000000	      0.00000000	     89.92718845	    -13.48223872	     12.33101991	     42.65514453	     82.19467975	      0.00000000	      0.00000000
      4.10500000	     -3.32647744	     -1.10272630	      4.33671931	     -0.42306194	      0.76110265	     -1.04044170	     57.49514943	     -5.32453101	      4.11973717	      8.35320854	      0.14579099	     -0.28154939	      0.00000000	      0.00000000	     52.28305544	     -1.02066076	     -9.56259479	     76.85750736	      1.34141656	     17.77504386	      0.00000000	      0.00000000	    -17.40059413	     -3.08151004	     -2.50451743	     89.91647468	    -10.65416079	     11.36056588	     33.50575062	     76.91630685	      0.00000000	      0.00000000	     89.92745780	    -13.50166503	     12.27651188	     42.70416314	     82.51915426	      0.00000000	      0.00000000
      4.11000000	     -3.40391857	     -0.94132464	      4.28061651	     -0.42312400	      0.76023872	     -1.04035450	     57.53867043	     -5.34450331	      4.55887518	      8.15116826	      0.14226472	     -0.83856486	      0.00000000	      0.00000000	     52.42311654	     -0.95215189	     -9.72718013	     76.99780185	      1.34386516	     17.87815148	      0.00000000	      0.00000000	    -17.33251589	     -3.27414407	     -2.49577884	     89.91651679	    -10.61332370	     11.90534426	     33.64942766	     72.36175901	      0.00000000	      0.00000000	     89.92751871	    -13.50523174	     12.79575896	     42.84571204	     77.85829584	      0.00000000	      0.00000000
      4.11500000	     -3.40193682	     -0.95308201	      4.24626173	     -0.42314860	      0.75958013	     -1.04022656	     57.52001712	     -5.32471119	      4.54761921	      8.15975648	      0.14241462	     -0.68296590	      0.00000000	      0.00000000	     52.50755214	     -0.97218269	     -9.69720220	     77.14154335	      1.34637392	     17.92299873	      0.00000000	      0.00000000	    -17.33959541	     -3.27180470	     -2.46429179	     89.91658434	    -10.56328420	     12.50110875	     33.78971202	     66.67212546	      0.00000000	      0.00000000	     89.92761832	    -13.53126304	     13.40869738	     43.03435369	     71.46574767	      0.00000000	      0.00000000
      4.12000000	     -3.36142667	     -0.94302489	      4.37466590	     -0.42297903	      0.75910170	     -1.04035391	     57.47213822	     -5.47219684	      4.27891135	      8.33334843	      0.14544437	     -0.42824925	      0.00000000	      0.00000000	     52.53641678	     -0.84792459	     -9.58710123	     77.26585021	      1.34854349	     17.96752563	      0.00000000	      0.00000000	    -17.39651949	     -3.25866021	     -2.59189505	     89.91686083	    -10.60495913	     11.37395898	     33.61765558	     76.51652046	      0.00000000	      0.00000000	     89.92782256	    -13.48430067	     12.20672640	     42.82431713	     82.64955950	      0.00000000	      0.00000000
      4.12500000	     -3.26936939	     -0.95109342	      4.50641629	     -0.42292621	      0.75850627	     -1.04048859	     57.30400796	     -5.57775564	      4.29916427	      8.24406862	      0.14388614	     -0.45839768	      0.00000000	      0.00000000	     52.53950720	     -0.74825193	     -9.47589739	     77.42918644	      1.35139424	     18.02881838	      0.00000000	      0.00000000	    -17.49781268	     -3.21879172	     -2.69296281	     89.91723061	    -10.57679951	     11.98843311	     33.75914261	     70.67734677	      0.00000000	      0.00000000	     89.92788322	    -13.46063840	     12.92883799	     43.00425802	     75.67544180	      0.00000000	      0.00000000
      4.13000000	     -3.40405767	     -0.83845435	      4.44585973	     -0.42292053	      0.75758808	     -1.04037831	     57.51191012	     -5.60977209	      4.41440874	      8.37512928	      0.14617358	     -0.50765195	      0.00000000	      0.00000000	     52.74824949	     -0.68318399	     -9.56488018	     77.56043784	      1.35368501	     18.11054358	      0.00000000	      0.00000000	    -17.35916995	     -3.36661174	     -2.65767202	     89.91727385	    -10.61967575	     11.53288713	     33.66403926	     75.64823234	      0.00000000	      0.00000000	     89.92800654	    -13.41134815	     12.10370251	     42.86954855	     82.61735929	      0.00000000	      0.00000000
      4.13500000	     -3.37387587	     -0.83305905	      4.43045967	     -0.42291970	      0.75693973	     -1.04031111	     57.41720708	     -5.60503042	      4.53041032	      8.26291503	      0.14421507	     -0.56442913	      0.00000000	      0.00000000	     52.79875974	     -0.68551605	     -9.54710751	     77.69796573	      1.35608532	     18.16303052	      0.00000000	      0.00000000	    -17.40119064	     -3.37238722	     -2.66376774	     89.91719609	    -10.50161323	     12.45970147	     33.99635357	     65.70033420	      0.00000000	      0.00000000	     89.92781768	    -13.45580205	     13.42488739	     43.22280387	     70.25714801	      0.00000000	      0.00000000
      4.14000000	     -3.39302448	     -0.85639748	      4.44264047	     -0.42283571	      0.75633605	     -1.04017958	     57.42309209	     -5.56456513	      4.64289744	      8.23838352	      0.14378692	     -0.72813412	      0.00000000	      0.00000000	     52.90657911	     -0.68152002	     -9.47807666	     77.84306171	      1.35861773	     18.24388993	      0.00000000	      0.00000000	    -17.38475635	     -3.37535673	     -2.63123926	     89.91760574	    -10.59534953	     11.18500090	     33.73938702	     76.70891429	      0.00000000	      0.00000000	     89.92803730	    -13.37235239	     12.12649682	     42.96141678	     82.45889165	      0.00000000	      0.00000000
      4.14500000	     -3.36104012	     -0.87329575	      4.44885482	     -0.42269823	      0.75572900	     -1.04010610	     57.34809677	     -5.58511781	      4.55995774	      8.26573651	      0.14426432	     -0.53756818	      0.00000000	      0.00000000	     52.95570195	     -0.69112001	     -9.43485915	     78.01167002	      1.36156050	     18.33814301	      0.00000000	      0.00000000	    -17.41488272	     -3.35425022	     -2.61919931	     89.91749874	    -10.59483598	     11.61774600	     33.78764141	     73.65254967	      0.00000000	      0.00000000	     89.92798494	    -13.40339182	     12.56148084	     43.02210729	     79.24592785	      0.00000000	      0.00000000
      4.15000000	     -3.38865707	     -0.77662311	      4.48282017	     -0.42264469	      0.75501591	     -1.04016243	     57.39670505	     -5.68552525	      4.64666212	      8.33026518	      0.14539056	     -0.43440075	      0.00000000	      0.00000000	     53.04669681	     -0.57449556	     -9.47359208	     78.12022612	      1.36345516	     18.36520716	      0.00000000	      0.00000000	    -17.39849302	     -3.44645632	     -2.68333807	     89.91785252	    -10.58777042	     11.27045770	     33.76408545	     76.21256451	      0.00000000	      0.00000000	     89.92807816	    -13.39220375	     12.19866426	     42.97829065	     82.51205849	      0.00000000	      0.00000000
      4.15500000	     -3.43481686	     -0.79268298	      4.56733500	     -0.42272653	      0.75421634	     -1.04016378	     57.54329734	     -5.74937316	      4.56393313	      8.58708304	      0.14987287	     -0.27110927	      0.00000000	      0.00000000	     53.22529933	     -0.49355722	     -9.34392040	     78.29185775	      1.36645070	     18.45504786	      0.00000000	      0.00000000	    -17.35768847	     -3.41405620	     -2.74810771	     89.91832778	    -10.46029835	     11.28416812	     33.80310766	     72.41072003	      0.00000000	      0.00000000	     89.92819033	    -13.22157553	     12.20189380	     42.94415433	     78.97912134	      0.00000000	      0.00000000
      4.16000000	     -3.39996042	     -0.78638215	      4.55454051	     -0.42268451	      0.75370556	     -1.04011425	     57.31628475	     -5.74782691	      4.75501503	      8.21421193	      0.14336504	     -0.51510447	      0.00000000	      0.00000000	     53.23387739	     -0.53623665	     -9.41101180	     78.40119408	      1.36835897	     18.50867129	      0.00000000	      0.00000000	    -17.41173645	     -3.42653456	     -2.72049432	     89.91800372	    -10.56538213	     12.02039226	     34.03001392	     69.43769895	      0.00000000	      0.00000000	     89.92816468	    -13.36771410	     12.92303260	     43.15917882	     75.70162763	      0.00000000	      0.00000000
      4.16500000	     -3.41254345	     -0.82045604	      4.55908381	     -0.42267446	      0.75299591	     -1.04001129	     57.49035143	     -5.72609268	      4.46765554	      8.58725183	      0.14987582	     -0.24679636	      0.00000000	      0.00000000	     53.34745284	     -0.53844866	     -9.32556560	     78.55888632	      1.37111122	     18.52179509	      0.00000000	      0.00000000	    -17.38182973	     -3.39721782	     -2.68490789	     89.91876930	    -10.40580074	     11.80900820	     33.94732556	     66.47274268	      0.00000000	      0.00000000	     89.92814924	    -13.15449976	     12.81212004	     43.05361686	     72.82060138	      0.00000000	      0.00000000
